<?xml version="1.0" encoding="UTF-8" standalone="no"?>
<!-- Created with Inkscape (http://www.inkscape.org/) -->

<svg
   xmlns:dc="http://purl.org/dc/elements/1.1/"
   xmlns:cc="http://creativecommons.org/ns#"
   xmlns:rdf="http://www.w3.org/1999/02/22-rdf-syntax-ns#"
   xmlns:svg="http://www.w3.org/2000/svg"
   xmlns="http://www.w3.org/2000/svg"
   version="1.1"
   width="100%"
   height="100%"
   viewBox="0 0 278.2 181.8"
   id="Layer_1"
   xml:space="preserve"><metadata
     id="metadata50"><rdf:RDF><cc:Work
         rdf:about=""><dc:format>image/svg+xml</dc:format><dc:type
           rdf:resource="http://purl.org/dc/dcmitype/StillImage" /><dc:title></dc:title></cc:Work></rdf:RDF></metadata><defs
     id="defs48" /><style
     type="text/css"
     id="style3" /><g
     id="g5"
     style="opacity:0.98000004;fill:#ffffff"><path
       d="m 211.9,157.2 -13.6,13.6 -17.9,-17.9 h 0 l -9.4,-9.4 -6.6,6.6 1.5,4.6 1.7,-1.7 3.4,-3.4 3.4,3.4 23.9,23.9 15,-15 -1.4,-4.7 z M 153.1,0 h -6 L 143.7,3.4 140.3,0 h -6 l 9.4,9.4 9.4,-9.4 z m 14.5,33.3 3.4,-3.4 0.2,0.2 -1.5,-4.8 -8,8 h 0 l -17.9,17.9 -16,-16 2.8,8.9 13.2,13.2 23.8,-24 z m 12.8,143.5 -9.4,-9.4 -0.8,0.8 2.1,6.7 2,2 5,5 h 6 l -4.9,-5.1 0,0 z m 37.3,-1.5 -1.5,1.5 h 0 l -5,5 h 6 l 2,-2 -1.5,-4.5 z m -46.7,-73.6 3.4,3.4 23.9,23.9 3.4,-3.4 -1.5,-4.6 -2,2 -17.9,-17.9 h 0 l -9.4,-9.4 -9.4,9.4 h 0 l -8.7,8.7 1.5,4.6 13.3,-13.3 3.4,-3.4 z m 0,-23.9 3.4,3.4 19.3,19.3 -2.8,-8.9 -10.4,-10.4 h 0 l -9.4,-9.4 -9.4,9.4 h 0 l -14.5,14.5 1.5,4.6 19.1,-19.1 3.2,-3.4 z m 0,47.8 3.4,3.4 23.9,23.9 9.2,-9.2 -1.5,-4.6 -7.8,7.8 -17.8,-17.9 h 0 l -9.4,-9.4 -9.4,9.4 h 0 l -2.9,2.9 1.5,4.6 7.5,-7.5 3.3,-3.4 z m -5.7,-113.9 -1.5,-4.6 -2.2,2.2 h 0 L 143.7,27.2 125.8,9.4 h 0 l -9.4,-9.4 2.8,8.9 0.6,0.6 23.9,23.9 21.6,-21.7 z m 5.7,42.2 3.4,3.4 8,8 -2.8,-8.9 -8.6,-8.6 -9.4,9.4 h 0 l -17.9,17.9 -4.8,-4.8 2.8,8.9 1.9,1.9 23.9,-23.9 3.5,-3.3 z"
       id="XMLID_18632_"
       style="fill:#ffffff" /><g
       id="XMLID_18626_"
       style="fill:#ffffff"><polygon
         points="109.8,20.6 102.4,43.5 130.4,97.9 137.7,75 "
         id="XMLID_18631_"
         style="fill:#ffffff" /><polygon
         points="116.4,0 113.5,9.1 128.9,39.2 "
         id="XMLID_18630_"
         style="fill:#ffffff" /><polygon
         points="99.1,149 99.1,149 108.3,166.7 115.6,143.9 113.8,140.3 99.1,111.9 99.1,111.9 87.7,89.6 80.8,111.2 82.5,116.6 94.7,140.3 94.7,140.3 "
         id="XMLID_18629_"
         style="fill:#ffffff" /><polygon
         points="99.1,93 119.3,132.3 126.7,109.5 99.1,55.9 99.1,55.9 98.7,55.1 91.4,78 99.1,93 "
         id="XMLID_18628_"
         style="fill:#ffffff" /><polygon
         points="99.1,167.8 98.5,166.6 103.4,181.8 104.5,178.3 99.1,167.8 "
         id="XMLID_18627_"
         style="fill:#ffffff" /></g><path
       d="m 272.8,0 c 0,2.4 -2,4.3 -4.3,4.3 -2.4,0 -4.3,-1.9 -4.3,-4.3 H 246 c 0,2.4 -2,4.3 -4.3,4.3 -2.4,0 -4.3,-1.9 -4.3,-4.3 h -4.6 L 230,8.8 c 1.6,0.7 2.7,2.2 2.7,4 0,2.4 -1.9,4.3 -4.3,4.3 -0.3,0 -0.7,0 -1,-0.1 l -9.9,30.8 c 1.1,0.8 1.8,2.1 1.8,3.5 0,2.4 -1.9,4.3 -4.3,4.3 l -10.1,31.5 c 0.6,0.7 1,1.7 1,2.7 0,2 -1.3,3.7 -3.2,4.2 l -5.5,17.2 0.6,2 c 0.8,-1.2 2.1,-2 3.7,-2 2.4,0 4.3,1.9 4.3,4.3 0,2.4 -1.9,4.3 -4.3,4.3 -0.6,0 -1.1,-0.1 -1.6,-0.3 l 10.8,33.7 c 0.4,-2 2.1,-3.5 4.3,-3.5 2.4,0 4.3,1.9 4.3,4.3 0,2.4 -1.9,4.3 -4.3,4.3 -1.2,0 -2.2,-0.5 -3,-1.2 l 7.9,24.6 4.4,-13.6 c -0.1,-0.4 -0.2,-0.9 -0.2,-1.3 0,-1.4 0.7,-2.7 1.8,-3.5 l 6.6,-20.6 c -0.6,1.6 -2.2,2.7 -4,2.7 -2.4,0 -4.3,-1.9 -4.3,-4.3 0,-2.4 1.9,-4.3 4.3,-4.3 2.4,0 4.3,1.9 4.3,4.3 0,0.4 -0.1,0.7 -0.1,1.1 l 11.5,-35.9 c -0.7,0.4 -1.5,0.7 -2.3,0.7 -2.4,0 -4.3,-1.9 -4.3,-4.3 0,-2.4 1.9,-4.3 4.3,-4.3 1.8,0 3.4,1.1 4,2.7 l 10.5,-32.7 c -0.4,0.1 -0.8,0.2 -1.1,0.2 -2.4,0 -4.3,-1.9 -4.3,-4.3 0,-2.4 1.9,-4.3 4.3,-4.3 1.4,0 2.6,0.6 3.4,1.6 L 268.6,30 c 0,0 0,0 -0.1,0 -2.4,0 -4.3,-1.9 -4.3,-4.3 0,-2.4 1.9,-4.3 4.3,-4.3 1,0 1.9,0.3 2.6,0.9 L 278.2,0 h -5.4 z m -57.9,132.7 c -2.4,0 -4.3,-1.9 -4.3,-4.3 0,-2.4 1.9,-4.3 4.3,-4.3 2.4,0 4.3,1.9 4.3,4.3 0,2.4 -1.9,4.3 -4.3,4.3 z m 0,-25.7 c -2.4,0 -4.3,-1.9 -4.3,-4.3 0,-2.4 1.9,-4.3 4.3,-4.3 2.4,0 4.3,1.9 4.3,4.3 0,2.4 -1.9,4.3 -4.3,4.3 z m 0,-25.6 c -2.4,0 -4.3,-1.9 -4.3,-4.3 0,-2.4 1.9,-4.3 4.3,-4.3 2.4,0 4.3,1.9 4.3,4.3 0,2.3 -1.9,4.3 -4.3,4.3 z m 13.4,38.5 c -2.4,0 -4.3,-1.9 -4.3,-4.3 0,-2.4 1.9,-4.3 4.3,-4.3 2.4,0 4.3,1.9 4.3,4.3 0,2.3 -1.9,4.3 -4.3,4.3 z m 0,-25.7 c -2.4,0 -4.3,-1.9 -4.3,-4.3 0,-2.4 1.9,-4.3 4.3,-4.3 2.4,0 4.3,1.9 4.3,4.3 0,2.4 -1.9,4.3 -4.3,4.3 z m 0,-25.7 c -2.4,0 -4.3,-1.9 -4.3,-4.3 0,-2.4 1.9,-4.3 4.3,-4.3 2.4,0 4.3,1.9 4.3,4.3 0,2.4 -1.9,4.3 -4.3,4.3 z m 0,-25.7 c -2.4,0 -4.3,-1.9 -4.3,-4.3 0,-2.4 1.9,-4.3 4.3,-4.3 2.4,0 4.3,1.9 4.3,4.3 0,2.4 -1.9,4.3 -4.3,4.3 z m 13.4,38.6 c -2.4,0 -4.3,-1.9 -4.3,-4.3 0,-2.4 1.9,-4.3 4.3,-4.3 2.4,0 4.3,1.9 4.3,4.3 0,2.3 -1.9,4.3 -4.3,4.3 z m 0,-25.7 c -2.4,0 -4.3,-1.9 -4.3,-4.3 0,-2.4 1.9,-4.3 4.3,-4.3 2.4,0 4.3,1.9 4.3,4.3 0,2.3 -1.9,4.3 -4.3,4.3 z m 0,-25.7 c -2.4,0 -4.3,-1.9 -4.3,-4.3 0,-2.4 1.9,-4.3 4.3,-4.3 2.4,0 4.3,1.9 4.3,4.3 0,2.4 -1.9,4.3 -4.3,4.3 z m 13.4,12.8 c -2.4,0 -4.3,-1.9 -4.3,-4.3 0,-2.4 1.9,-4.3 4.3,-4.3 2.4,0 4.3,1.9 4.3,4.3 0,2.4 -1.9,4.3 -4.3,4.3 z m 0,-25.6 c -2.4,0 -4.3,-1.9 -4.3,-4.3 0,-2.4 1.9,-4.3 4.3,-4.3 2.4,0 4.3,1.9 4.3,4.3 0,2.4 -1.9,4.3 -4.3,4.3 z"
       id="XMLID_18373_"
       style="fill:#ffffff" /><g
       id="XMLID_18254_"
       style="fill:#ffffff"><circle
         cx="82.900002"
         cy="154.10001"
         r="4.3000002"
         id="XMLID_18369_"
         style="fill:#ffffff" /><path
         d="m 69.5,85.5 c -2.4,0 -4.3,1.9 -4.3,4.3 0,2.4 1.9,4.3 4.3,4.3 2.4,0 4.3,-1.9 4.3,-4.3 0,-0.1 0,-0.2 0,-0.3 l -0.6,-1.9 c -0.7,-1.2 -2.1,-2.1 -3.7,-2.1 z"
         id="XMLID_18371_"
         style="fill:#ffffff" /><circle
         cx="69.5"
         cy="166.89999"
         r="4.3000002"
         id="XMLID_18376_"
         style="fill:#ffffff" /><circle
         cx="69.5"
         cy="141.2"
         r="4.3000002"
         id="XMLID_18381_"
         style="fill:#ffffff" /><circle
         cx="56.099998"
         cy="128.39999"
         r="4.3000002"
         id="XMLID_18386_"
         style="fill:#ffffff" /><circle
         cx="69.5"
         cy="115.6"
         r="4.3000002"
         id="XMLID_18388_"
         style="fill:#ffffff" /><circle
         cx="56.099998"
         cy="154.10001"
         r="4.3000002"
         id="XMLID_18389_"
         style="fill:#ffffff" /><path
         d="M 66.8,67.6 65.3,63 c -0.1,0.4 -0.2,0.8 -0.2,1.2 0.1,1.4 0.7,2.6 1.7,3.4 z"
         id="XMLID_18390_"
         style="fill:#ffffff" /><circle
         cx="29.299999"
         cy="77"
         r="4.3000002"
         id="XMLID_18391_"
         style="fill:#ffffff" /><circle
         cx="29.299999"
         cy="51.400002"
         r="4.3000002"
         id="XMLID_18392_"
         style="fill:#ffffff" /><circle
         cx="29.299999"
         cy="25.700001"
         r="4.3000002"
         id="XMLID_18393_"
         style="fill:#ffffff" /><circle
         cx="15.9"
         cy="12.8"
         r="4.3000002"
         id="XMLID_18394_"
         style="fill:#ffffff" /><path
         d="m 31.8,99.1 1.6,5.1 c 0.2,-0.5 0.3,-1 0.3,-1.5 0,-1.5 -0.8,-2.8 -1.9,-3.6 z"
         id="XMLID_18395_"
         style="fill:#ffffff" /><path
         d="m 78.6,128.4 c 0,2.4 1.9,4.3 4.3,4.3 1.8,0 3.3,-1 4,-2.5 l -1.8,-5.6 c -0.6,-0.4 -1.4,-0.6 -2.2,-0.6 -2.4,0.1 -4.3,2 -4.3,4.4 z"
         id="XMLID_18396_"
         style="fill:#ffffff" /><path
         d="m 20.3,38.5 c 0,-2.4 -1.9,-4.3 -4.3,-4.3 -1.9,0 -3.4,1.2 -4.1,2.8 l 1.7,5.2 c 0.7,0.5 1.5,0.7 2.4,0.7 2.3,0 4.3,-2 4.3,-4.4 z"
         id="XMLID_18397_"
         style="fill:#ffffff" /><circle
         cx="42.700001"
         cy="64.199997"
         r="4.3000002"
         id="XMLID_18398_"
         style="fill:#ffffff" /><path
         d="m 60.5,179.8 c 0,-2.4 -1.9,-4.3 -4.2,-4.3 l 2.1,6.4 h 1.7 c 0.2,-0.7 0.4,-1.4 0.4,-2.1 z"
         id="XMLID_18399_"
         style="fill:#ffffff" /><path
         d="m 43.9,137.1 2.2,6.9 c 0.6,-0.7 0.9,-1.7 0.9,-2.7 0.1,-2 -1.3,-3.7 -3.1,-4.2 z"
         id="XMLID_18400_"
         style="fill:#ffffff" /><path
         d="m 87.3,179.8 c 0,-2.4 -1.9,-4.3 -4.3,-4.3 -2.4,0 -4.3,1.9 -4.3,4.3 0,0.8 0.2,1.5 0.5,2.1 h 7.6 c 0.3,-0.7 0.5,-1.4 0.5,-2.1 z"
         id="XMLID_18401_"
         style="fill:#ffffff" /><path
         d="m 29.3,4.3 c 2.4,0 4.3,-1.9 4.3,-4.3 H 25 c 0,2.4 1.9,4.3 4.3,4.3 z"
         id="XMLID_18402_"
         style="fill:#ffffff" /><path
         d="m 97.3,162.7 c -0.3,-0.1 -0.6,-0.1 -1,-0.1 -2.4,0 -4.3,1.9 -4.3,4.3 0,2.4 1.9,4.3 4.3,4.3 1.3,0 2.4,-0.6 3.2,-1.5 l -2.2,-7 z"
         id="XMLID_18403_"
         style="fill:#ffffff" /><circle
         cx="56.099998"
         cy="102.7"
         r="4.3000002"
         id="XMLID_18404_"
         style="fill:#ffffff" /><circle
         cx="42.700001"
         cy="115.6"
         r="4.3000002"
         id="XMLID_18405_"
         style="fill:#ffffff" /><path
         d="M 1.3,4.2 C 1.7,4.3 2.1,4.4 2.5,4.4 4.9,4.4 6.8,2.5 6.8,0.1 H 0 l 1.3,4.1 z"
         id="XMLID_18406_"
         style="fill:#ffffff" /><circle
         cx="56.099998"
         cy="51.400002"
         r="4.3000002"
         id="XMLID_18407_"
         style="fill:#ffffff" /><path
         d="m 54.7,29.8 -2.1,-6.6 c -0.5,0.7 -0.8,1.6 -0.8,2.5 0,1.9 1.2,3.5 2.9,4.1 z"
         id="XMLID_18408_"
         style="fill:#ffffff" /><circle
         cx="42.700001"
         cy="12.8"
         r="4.3000002"
         id="XMLID_18409_"
         style="fill:#ffffff" /><circle
         cx="56.099998"
         cy="77"
         r="4.3000002"
         id="XMLID_18410_"
         style="fill:#ffffff" /><circle
         cx="42.700001"
         cy="38.5"
         r="4.3000002"
         id="XMLID_18411_"
         style="fill:#ffffff" /><circle
         cx="42.700001"
         cy="89.900002"
         r="4.3000002"
         id="XMLID_18412_"
         style="fill:#ffffff" /></g></g></svg>